<?xml version="1.0" standalone="no"?>
<!DOCTYPE svg PUBLIC "-//W3C//DTD SVG 20010904//EN"
 "http://www.w3.org/TR/2001/REC-SVG-20010904/DTD/svg10.dtd">
<svg version="1.0" xmlns="http://www.w3.org/2000/svg"
 width="700.000000pt" height="700.000000pt" viewBox="0 0 700.000000 700.000000"
 preserveAspectRatio="xMidYMid meet">
<metadata>
Created by potrace 1.14, written by Peter Selinger 2001-2017
</metadata>
<g transform="translate(0.000000,700.000000) scale(0.100000,-0.100000)"
fill="#000000" stroke="none">
<path d="M3487 6993 c-1 -1 -33 -3 -71 -4 -150 -5 -363 -62 -508 -135 -64 -32
-272 -169 -803 -529 -82 -56 -280 -189 -440 -297 -159 -107 -398 -268 -530
-358 -132 -89 -311 -210 -399 -268 -254 -171 -322 -227 -432 -357 -154 -182
-256 -411 -291 -656 -10 -69 -11 -3198 -1 -3259 15 -93 20 -113 42 -188 130
-431 462 -762 892 -888 188 -55 50 -52 2574 -50 l2335 1 90 22 c400 94 708
329 894 684 51 98 101 234 120 329 6 30 14 69 18 85 11 46 13 3158 2 3240 -31
227 -109 426 -237 604 -114 158 -208 244 -442 400 -85 57 -159 108 -165 113
-6 6 -10 206 -11 551 0 298 -4 556 -8 574 -9 41 -65 90 -111 99 -52 9 -114
-17 -145 -63 l-25 -37 -1 -453 c0 -249 -4 -456 -7 -460 -4 -3 -15 1 -24 9 -20
17 -109 78 -488 333 -137 92 -351 236 -475 320 -777 525 -796 536 -1015 595
-82 22 -328 54 -338 43z m188 -310 c179 -31 266 -75 610 -306 360 -243 543
-366 1130 -762 264 -178 572 -386 685 -462 161 -108 225 -158 300 -233 157
-158 244 -330 286 -565 9 -52 12 -3082 3 -3155 -6 -50 -11 -75 -23 -135 -2
-11 -14 -49 -26 -84 -81 -240 -273 -461 -500 -576 -63 -32 -166 -72 -207 -80
-144 -29 -192 -33 -432 -31 -248 1 -256 2 -257 21 -13 222 -37 364 -88 513
-84 246 -193 435 -359 622 -224 253 -526 439 -847 524 -92 24 -108 28 -195 42
-157 25 -371 24 -530 -1 -16 -3 -41 -7 -55 -9 -14 -2 -63 -14 -110 -26 -493
-126 -913 -468 -1136 -925 -111 -229 -165 -438 -178 -695 l-3 -65 -274 0
c-285 0 -342 6 -469 47 -158 51 -280 127 -406 252 -90 91 -160 187 -203 281
-31 65 -70 181 -77 225 -3 19 -10 55 -14 80 -5 25 -9 732 -9 1572 -1 1321 1
1538 14 1615 48 275 185 500 406 662 41 31 241 168 445 304 203 137 464 312
579 390 1390 939 1291 876 1442 926 144 48 341 62 498 34z m-27 -4948 c228
-20 490 -119 689 -262 353 -251 584 -663 610 -1085 l6 -97 -1459 2 -1459 2 1
25 c4 87 17 193 30 257 92 448 392 830 805 1026 148 70 331 121 479 133 41 4
76 7 77 9 4 3 152 -3 221 -10z"/>
<path d="M3487 4954 c-1 -1 -38 -4 -82 -7 -502 -35 -928 -399 -1045 -892 -24
-100 -29 -144 -30 -270 -2 -239 69 -465 210 -669 57 -83 178 -206 260 -266 30
-21 60 -43 65 -48 28 -24 220 -111 285 -130 240 -70 486 -67 714 9 404 135
719 505 782 919 16 100 10 337 -10 425 -119 520 -537 883 -1064 924 -46 4 -84
6 -85 5z m139 -304 c230 -36 427 -155 569 -345 64 -85 97 -150 130 -251 32
-99 40 -155 39 -284 -1 -230 -84 -429 -247 -593 -111 -112 -207 -173 -347
-220 -101 -35 -154 -42 -290 -41 -279 1 -537 137 -702 369 -53 74 -110 194
-123 259 -3 10 -10 35 -17 55 -20 56 -16 310 5 391 79 297 292 529 572 625
121 41 284 55 411 35z"/>
</g>
</svg>
